<?xml version="1.0" standalone="no"?>
<!DOCTYPE svg PUBLIC "-//W3C//DTD SVG 20010904//EN"
 "http://www.w3.org/TR/2001/REC-SVG-20010904/DTD/svg10.dtd">
<svg version="1.0" xmlns="http://www.w3.org/2000/svg"
 width="417.000000pt" height="234.000000pt" viewBox="0 0 417.000000 234.000000"
 preserveAspectRatio="xMidYMid meet">

<g transform="translate(0.000000,234.000000) scale(0.100000,-0.100000)"
fill="#000000" stroke="none">
<path d="M161 2228 c0 -7 31 -179 67 -383 l67 -370 188 -3 c103 -1 187 0 187
3 0 9 -120 716 -125 743 -5 22 -7 22 -195 22 -146 0 -190 -3 -189 -12z" fill="#fff"/>
<path d="M1960 2238 c0 -7 -121 -717 -126 -740 l-6 -28 186 0 c101 0 187 3
190 8 4 7 136 734 136 752 0 8 -380 16 -380 8z" fill="#fff"/>
<path d="M1097 1833 c-8 -13 -87 -329 -87 -347 0 -14 25 -16 246 -16 193 0
245 3 242 13 -3 6 -25 90 -49 184 l-44 173 -152 0 c-83 0 -154 -3 -156 -7z" fill="#fff"/>
<path d="M414 1351 c-29 -13 -54 -50 -54 -81 0 -41 26 -68 90 -91 63 -23 81
-51 40 -64 -24 -8 -60 11 -60 30 0 10 -11 15 -35 15 -30 0 -35 -3 -35 -24 0
-44 40 -78 96 -83 149 -15 187 133 47 175 -21 6 -47 18 -58 26 -16 12 -17 16
-6 30 19 23 38 20 65 -9 16 -17 34 -25 56 -25 30 0 32 2 25 28 -11 46 -47 74
-102 78 -26 2 -58 0 -69 -5z" fill="#5C001D"/>
<path d="M820 1281 l0 -79 -37 -30 c-38 -30 -38 -30 -19 -51 13 -15 23 -18 30
-11 18 18 26 11 26 -25 l0 -35 110 0 110 0 0 30 0 30 -75 0 -75 0 0 44 c0 24
4 46 9 48 5 2 30 23 56 47 37 34 46 48 38 59 -16 26 -30 24 -67 -9 l-36 -31 0
46 c0 46 0 46 -35 46 l-35 0 0 -79z" fill="#5C001D"/>
<path d="M1341 1336 c-5 -13 -26 -77 -47 -142 -20 -65 -39 -125 -41 -131 -4
-9 7 -13 35 -13 32 0 42 4 47 20 5 17 15 20 60 20 44 0 53 -3 58 -20 4 -15 14
-20 41 -20 39 0 41 3 27 46 -6 16 -26 82 -46 147 l-36 117 -45 0 c-38 0 -46
-4 -53 -24z m56 -184 c-16 -2 -31 -2 -33 1 -2 2 4 28 13 58 l16 54 17 -55 16
-55 -29 -3z" fill="#5C001D"/>
<path d="M1740 1353 c0 -4 17 -73 38 -153 l39 -145 36 -3 35 -3 12 58 c22 113
25 114 44 25 l18 -82 37 0 37 0 33 138 c19 75 36 145 39 155 4 14 -3 17 -36
17 l-40 0 -12 -63 c-17 -94 -24 -96 -44 -12 -18 75 -18 75 -51 75 -37 0 -36 2
-56 -93 -7 -31 -14 -55 -17 -53 -2 3 -11 35 -20 73 -17 68 -17 68 -54 71 -21
2 -38 0 -38 -5z" fill="#5C001D"/>
<path d="M2374 1341 c-38 -23 -54 -65 -54 -138 0 -108 48 -160 139 -150 34 4
52 13 73 36 26 29 28 38 28 116 0 79 -2 87 -28 116 -37 41 -110 51 -158 20z
m96 -61 c20 -20 28 -97 14 -134 -10 -26 -41 -38 -64 -26 -17 9 -20 21 -20 85
0 60 3 76 18 84 24 15 29 14 52 -9z" fill="#5C001D"/>
<path d="M2790 1205 l0 -155 40 0 40 0 0 88 c1 86 1 87 18 60 23 -38 55 -36
81 5 l21 32 0 -92 0 -93 35 0 35 0 0 155 0 155 -35 0 c-32 0 -39 -5 -67 -51
l-32 -50 -30 50 c-28 47 -34 51 -68 51 l-38 0 0 -155z" fill="#5C001D"/>
<path d="M3300 1205 l0 -155 35 0 35 0 0 155 0 155 -35 0 -35 0 0 -155z" fill="#5C001D"/>
<path d="M3610 1205 l0 -155 35 0 35 0 0 60 c0 51 3 60 18 60 12 0 25 -18 41
-60 24 -59 25 -60 63 -60 21 0 38 2 38 5 0 3 -11 28 -25 55 -31 60 -31 67 -2
90 17 14 22 29 22 65 0 39 -5 51 -28 71 -25 21 -38 24 -113 24 l-84 0 0 -155z
m138 86 c8 -4 12 -19 10 -32 -2 -20 -10 -25 -40 -27 -37 -3 -38 -3 -38 32 0
33 3 36 28 36 15 0 33 -4 40 -9z" fill="#5C001D"/>
<path d="M396 913 c3 -16 35 -199 73 -408 l68 -380 199 -3 200 -2 102 387 c56
214 105 398 108 411 l6 22 -144 0 -144 0 -28 -116 c-16 -63 -30 -113 -32 -111
-3 2 -11 44 -19 93 -9 49 -18 99 -20 112 -5 22 -7 22 -190 22 l-184 0 5 -27z" fill="#fff"/>
<path d="M1352 928 c3 -7 52 -192 109 -410 l104 -398 200 0 200 0 68 388 c38
213 71 397 74 410 l5 22 -185 0 c-213 0 -186 16 -208 -125 -6 -44 -15 -86 -18
-92 -4 -7 -20 39 -35 102 l-29 115 -145 0 c-111 0 -143 -3 -140 -12z" fill="#fff"/>
<path d="M2377 913 c-3 -5 -12 -32 -20 -60 l-16 -53 37 0 c34 0 39 4 65 50 15
28 27 55 27 60 0 12 -87 14 -93 3z" fill="#fff"/>
<path d="M3123 750 c-47 -15 -90 -64 -108 -123 -22 -74 -29 -209 -16 -297 24
-154 80 -210 212 -210 106 0 129 7 129 41 l0 29 -74 0 c-88 0 -115 17 -143 88
-14 36 -18 74 -18 167 1 194 36 245 170 245 62 0 65 1 65 24 0 13 -8 27 -17
30 -31 12 -167 16 -200 6z" fill="#fff"/>
<path d="M2305 738 c-43 -23 -85 -74 -102 -122 -26 -73 -25 -290 0 -363 33
-96 110 -142 214 -130 72 8 129 63 155 151 19 64 16 280 -5 342 -17 49 -60
100 -104 123 -28 14 -132 14 -158 -1z m112 -63 c42 -29 58 -98 58 -245 0 -124
-2 -139 -25 -184 -14 -27 -34 -53 -46 -57 -31 -11 -66 11 -89 56 -17 35 -20
60 -20 185 0 160 10 207 52 240 31 24 42 25 70 5z" fill="#fff"/>
<path d="M2788 494 l-3 -256 -28 -24 c-22 -19 -39 -24 -83 -24 -51 0 -54 -1
-54 -25 0 -20 7 -26 42 -36 51 -13 120 -6 162 19 17 9 41 37 54 62 21 42 22
55 22 292 l0 248 -55 0 -54 0 -3 -256z" fill="#fff"/>
<path d="M3410 440 l0 -310 55 0 55 0 0 310 0 310 -55 0 -55 0 0 -310z" fill="#fff"/>
<path d="M3640 440 l0 -310 55 0 54 0 3 143 3 142 78 -143 79 -142 59 0 c32 0
59 2 59 5 0 3 -39 73 -87 157 l-86 151 31 61 c17 33 53 103 81 154 l50 92 -62
0 -62 0 -70 -137 -70 -136 -3 136 -3 137 -54 0 -55 0 0 -310z" fill="#fff"/>
</g>
</svg>
